<svg width="16" height="16" viewBox="0 0 16 16" fill="none" xmlns="http://www.w3.org/2000/svg">
<path d="M11 3.95001C10.612 3.95001 10.247 4.03999 9.91599 4.18799C10.0518 4.8383 10.0224 5.51231 9.83017 6.14825C9.63799 6.7842 9.28928 7.36177 8.81601 7.828C9.05344 8.1902 9.37755 8.48738 9.75894 8.69257C10.1403 8.89775 10.5669 9.00445 11 9.00299C12.433 9.00299 13.594 7.87299 13.594 6.47699C13.594 5.08099 12.433 3.95001 11 3.95001ZM11 10.003C10.804 10.003 10.628 10.015 10.447 10.024C11.145 10.424 11.677 10.901 12.051 11.401C12.993 12.658 13 14.003 13 14.003H16V13.003C16 13.003 16 10.003 11 10.003ZM7.09799 11.053C6.00799 11.919 6 13.003 6 13.003V14.003H11C11 14.003 11.007 13.345 10.45 12.6C9.97201 11.963 9.07899 11.248 7.09799 11.054V11.053Z" fill="#FFFFFF"/>
<path d="M6 2C6.79565 2 7.5587 2.31608 8.12131 2.87869C8.68392 3.4413 9 4.20435 9 5C9 5.79565 8.68392 6.55873 8.12131 7.12134C7.5587 7.68395 6.79565 8 6 8C5.20435 8 4.4413 7.68395 3.87869 7.12134C3.31608 6.55873 3 5.79565 3 5C3 4.20435 3.31608 3.4413 3.87869 2.87869C4.4413 2.31608 5.20435 2 6 2ZM6 10C12 9.997 12 14.003 12 14.003V15.003H0V14.003C0 14.003 0 10.003 6 10Z" fill="#FFFFFF"/>
</svg>
